<svg fill="none" height="49" viewBox="0 0 48 49" width="48" xmlns="http://www.w3.org/2000/svg"><path d="m4 24.5c0 11.0457 8.9543 20 20 20s20-8.9543 20-20-8.9543-20-20-20-20 8.9543-20 20z" fill="#1575e5"/><path d="m28.8038 35.4998c3.7155-1.6249 6.4493-5.0771 7.0652-9.2203.349.1422.7309.2205 1.131.2205 1.6569 0 3-1.3431 3-3 0-1.0623-.5521-1.9956-1.385-2.5286.2451-.4348.385-.9367.385-1.4714 0-1.6569-1.3431-3-3-3 0-1.6569-1.3431-3-3-3-.9144 0-1.7333.4091-2.2835 1.0543-1.9166-1.2969-4.2281-2.0543-6.7165-2.0543s-4.7999.7574-6.7165 2.0543c-.5502-.6452-1.3691-1.0543-2.2835-1.0543-1.6569 0-3 1.3431-3 3-1.6569 0-3 1.3431-3 3 0 .5347.13986 1.0366.38499 1.4714-.8329.533-1.38499 1.4663-1.38499 2.5286 0 1.6569 1.34315 3 3 3 .4001 0 .782-.0783 1.131-.2205.616 4.1435 3.3501 7.5959 7.066 9.2207-2.6383 1.1538-4.7816 3.2289-6.0232 5.8187 3.1206 2.0129 6.8373 3.1811 10.827 3.1811 3.9896 0 7.7063-1.1682 10.8269-3.1811-1.2417-2.59-3.3853-4.6653-6.0239-5.8191z" fill="#a6cfff"/><g fill="#1575e5"><path clip-rule="evenodd" d="m21 27.5c.5523 0 1 .4477 1 1 0 1.1046.8954 2 2 2s2-.8954 2-2c0-.5523.4477-1 1-1s1 .4477 1 1c0 2.2091-1.7909 4-4 4s-4-1.7909-4-4c0-.5523.4477-1 1-1z" fill-rule="evenodd"/><path d="m18.0395 20.7803c.1933-.3737.7277-.3737.921 0l.5238 1.013c.0493.0954.127.1731.2224.2224l1.013.5238c.3737.1933.3737.7277 0 .921l-1.013.5238c-.0954.0493-.1731.127-.2224.2224l-.5238 1.013c-.1933.3737-.7277.3737-.921 0l-.5238-1.013c-.0493-.0954-.127-.1731-.2224-.2224l-1.013-.5238c-.3737-.1933-.3737-.7277 0-.921l1.013-.5238c.0954-.0493.1731-.127.2224-.2224z"/><path d="m29.0395 20.7803c.1933-.3737.7277-.3737.921 0l.5238 1.013c.0493.0954.127.1731.2224.2224l1.013.5238c.3737.1933.3737.7277 0 .921l-1.013.5238c-.0954.0493-.1731.127-.2224.2224l-.5238 1.013c-.1933.3737-.7277.3737-.921 0l-.5238-1.013c-.0493-.0954-.127-.1731-.2224-.2224l-1.013-.5238c-.3737-.1933-.3737-.7277 0-.921l1.013-.5238c.0954-.0493.1731-.127.2224-.2224z"/></g></svg>